<?xml version="1.0" encoding="UTF-8" standalone="no"?>
<!-- Created with Inkscape (http://www.inkscape.org/) -->

<svg
   xmlns:dc="http://purl.org/dc/elements/1.1/"
   xmlns:cc="http://creativecommons.org/ns#"
   xmlns:rdf="http://www.w3.org/1999/02/22-rdf-syntax-ns#"
   xmlns:svg="http://www.w3.org/2000/svg"
   xmlns="http://www.w3.org/2000/svg"
   xmlns:sodipodi="http://sodipodi.sourceforge.net/DTD/sodipodi-0.dtd"
   xmlns:inkscape="http://www.inkscape.org/namespaces/inkscape"
   inkscape:version="0.48.2 r9819"
   version="1.1"
   id="svg2"
   height="1052.3622047"
   width="744.09448819"
   sodipodi:docname="drawing.svg">
  <sodipodi:namedview
     id="base"
     pagecolor="#ffffff"
     bordercolor="#666666"
     borderopacity="1.0"
     inkscape:pageopacity="0.0"
     inkscape:pageshadow="2"
     inkscape:zoom="0.5"
     inkscape:cx="415.03794"
     inkscape:cy="551.401"
     inkscape:document-units="px"
     inkscape:current-layer="layer1"
     showgrid="false"
     inkscape:window-width="1680"
     inkscape:window-height="988"
     inkscape:window-x="-8"
     inkscape:window-y="-8"
     inkscape:window-maximized="1" />
  <defs
     id="defs4">
    <marker
       style="fill:#000000"
       markerHeight="8"
       markerWidth="16"
       markerUnits="strokeWidth"
       orient="auto"
       refY="4"
       refX="0"
       viewBox="0 0 16 8"
       id="seta2">
      <path
         id="path6997"
         d="M 16,0 L 16,8 L 0,4 L 16,0 z " />
    </marker>
    <marker
       style="fill:#000000"
       markerHeight="8"
       markerWidth="16"
       markerUnits="strokeWidth"
       orient="auto"
       refY="4"
       refX="16"
       viewBox="0 0 16 8"
       id="seta1">
      <path
         id="path6994"
         d="M 0,0 L 0,8 L 16,4 L 0,0 z " />
    </marker>
  </defs>
  <metadata
     id="metadata7">
    <rdf:RDF>
      <cc:Work
         rdf:about="">
        <dc:format>image/svg+xml</dc:format>
        <dc:type
           rdf:resource="http://purl.org/dc/dcmitype/StillImage" />
        <dc:title></dc:title>
      </cc:Work>
    </rdf:RDF>
  </metadata>
  <g
     inkscape:label="Layer 1"
     inkscape:groupmode="layer"
     id="layer1">
    <text
       xml:space="preserve"
       style="font-size:11.68831158px;font-style:normal;font-weight:normal;fill:#000000;fill-opacity:1;stroke:none;font-family:Lello"
       x="-1559.0001"
       y="-802.16516"
       id="text2171"><tspan
         sodipodi:role="line"
         id="tspan2173"
         x="-1559.0001"
         y="-802.16516" /></text>
    <g
       id="g5325"
       inkscape:export-filename="C:\1_MainSoft\Tenebrix.png"
       inkscape:export-xdpi="90"
       inkscape:export-ydpi="90">
      <g
         id="g5320">
        <path
           inkscape:connector-curvature="0"
           style="font-size:2050.27807617px;font-style:normal;font-weight:normal;fill:#000000;fill-opacity:1;stroke:none;font-family:Times New Roman"
           d="m 276.80798,332.56429 -7.16789,76.21776 c -1.14557,13.21304 -1.71951,26.59457 -1.72355,40.16381 -0.008,25.86989 2.71864,42.62576 8.21816,50.32328 5.55064,7.76948 11.9536,13.12873 19.23563,16.04954 16.58142,6.65088 26.64956,-0.7588 29.8722,-22.45377 l 4e-4,0.003 c -5.99633,50.67646 -15.58089,72.29278 -47.51432,58.32768 -31.71374,-13.86903 -46.93852,-40.3209 -46.92963,-79.90987 0.004,-19.97227 1.69111,-44.27116 5.07549,-73.02541 l 8.62956,-73.87492 -22.75745,-5.76159 c -12.18554,-3.08485 -21.47931,-3.0919 -28.01889,-0.0975 -6.46281,2.95954 -19.81507,8.54617 -25.23623,20.91799 l 0.002,-0.0199 c 4.38391,-17.05183 9.63606,-30.2127 15.78134,-39.49368 6.21542,-9.38662 12.2145,-15.37494 17.98884,-17.90405 5.83502,-2.55527 14.62846,-2.55864 26.51971,0.0508 l 124.55584,27.33573 -0.0211,42.52114 -76.51058,-19.37044"
           id="text2175"
           sodipodi:nodetypes="ccccsccsscccccccccccc" />
        <path
           sodipodi:nodetypes="cccc"
           id="path5108"
           d="m 510.15325,486.37222 -157.02129,-176.95863 0.0211,42.52114 157.1252,148.6107"
           style="font-size:2050.27807617px;font-style:normal;font-weight:normal;fill:#000000;fill-opacity:1;stroke:none;font-family:Times New Roman"
           inkscape:connector-curvature="0" />
        <path
           inkscape:connector-curvature="0"
           style="font-size:2050.27807617px;font-style:normal;font-weight:normal;fill:#000000;fill-opacity:1;stroke:none;font-family:Times New Roman"
           d="M 510.08602,281.04052 353.9348,562.77857 353.95587,519.4546 509.98163,280.98842"
           id="path5258"
           sodipodi:nodetypes="cccc" />
      </g>
    </g>
  </g>
  <g
     id="g5267"
     transform="matrix(0.97402597,0,0,0.97402597,-2521.0621,-263.32994)">
    <text
       id="text2171-8"
       y="-946.41162"
       x="-471.24011"
       style="font-size:12px;font-style:normal;font-weight:normal;fill:#000000;fill-opacity:1;stroke:none;font-family:Lello"
       xml:space="preserve"><tspan
         y="-946.41162"
         x="-471.24011"
         id="tspan2173-8"
         sodipodi:role="line" /></text>
  </g>
</svg>
